<?xml version="1.0" encoding="utf-8"?>
<!-- Generator: Adobe Illustrator 24.0.0, SVG Export Plug-In . SVG Version: 6.00 Build 0)  -->
<svg version="1.1" id="Layer_1" xmlns="http://www.w3.org/2000/svg" xmlns:xlink="http://www.w3.org/1999/xlink" x="0px" y="0px"
	 viewBox="0 0 907.1 907.1" style="enable-background:new 0 0 907.1 907.1;" xml:space="preserve">
<style type="text/css">
	.st0{fill:none;}
	.st1{fill:#037053;}
</style>
<polygon class="st0" points="552.7,333 579.3,333 579.3,217.9 "/>
<polygon class="st0" points="447.9,491.6 474.1,363.6 415.8,363.6 "/>
<polygon class="st0" points="213,491 245.3,363.6 186.7,363.6 "/>
<polygon class="st0" points="316,333 346.1,333 331.2,275.7 "/>
<polygon class="st1" points="213,491 186.7,363.6 114.6,363.6 169.7,602.1 244.3,602.1 307.8,363.6 245.3,363.6 "/>
<polygon class="st1" points="331.2,275.7 346.1,333 408.1,333 363.5,155 298.4,155 253.1,333 316,333 "/>
<polygon class="st1" points="579.3,217.9 579.3,333 657,333 657,217.6 869.5,217.6 869.5,155 579.3,155 579.3,155 516.7,155 
	480.3,333 552.7,333 "/>
<polygon class="st1" points="657,540.1 657,402.5 840.6,402.5 840.6,363.6 579.3,363.6 579.3,602.1 871.6,602.1 871.6,540.1 "/>
<polygon class="st1" points="447.9,491.6 415.8,363.6 354.1,363.6 416.3,602.1 490.6,602.1 545.6,363.6 474.1,363.6 "/>
<polygon class="st1" points="143.6,155 66.5,155 107.6,333 180.3,333 "/>
<g>
	<path d="M114,694.9l1.8,12.7l2.7-11.4l19.1-67.2h10.7l18.6,67.2l2.6,11.6l2.1-13l14.9-65.9h12.8L176,725.2h-11.6l-19.8-70.2
		l-1.5-7.3l-1.5,7.3l-20.6,70.2h-11.6l-23.3-96.3h12.7L114,694.9z"/>
	<path d="M206.2,688.8c0-7,1.4-13.3,4.1-18.9s6.6-9.9,11.5-13c4.9-3,10.5-4.6,16.8-4.6c9.7,0,17.6,3.4,23.6,10.1
		c6,6.7,9,15.7,9,26.9v0.9c0,7-1.3,13.2-4,18.8s-6.5,9.8-11.4,12.9c-5,3.1-10.7,4.6-17.1,4.6c-9.7,0-17.6-3.4-23.6-10.1
		s-9-15.7-9-26.8L206.2,688.8L206.2,688.8z M218.5,690.2c0,7.9,1.8,14.3,5.5,19.1c3.7,4.8,8.6,7.2,14.8,7.2c6.2,0,11.1-2.4,14.8-7.3
		c3.7-4.9,5.5-11.7,5.5-20.5c0-7.8-1.9-14.2-5.6-19.1c-3.7-4.9-8.7-7.3-14.9-7.3c-6,0-10.9,2.4-14.6,7.2S218.5,681.3,218.5,690.2z"
		/>
	<path d="M321.3,664.7c-1.9-0.3-3.9-0.5-6-0.5c-8,0-13.5,3.4-16.3,10.2v50.8h-12.2v-71.6h11.9l0.2,8.3c4-6.4,9.7-9.6,17.1-9.6
		c2.4,0,4.2,0.3,5.4,0.9L321.3,664.7L321.3,664.7z"/>
	<path d="M352.5,692.1l-7.7,8v25.1h-12.2V623.7h12.2v61.4l6.5-7.9l22.3-23.5h14.9l-27.8,29.9l31.1,41.7h-14.4L352.5,692.1z"/>
</g>
<g>
	<path d="M389.6,688.8c0-7,1.4-13.3,4.1-18.9s6.6-9.9,11.5-13c4.9-3,10.5-4.6,16.8-4.6c9.7,0,17.6,3.4,23.6,10.1
		c6,6.7,9,15.7,9,26.9v0.9c0,7-1.3,13.2-4,18.8s-6.5,9.8-11.4,12.9c-5,3.1-10.7,4.6-17.1,4.6c-9.7,0-17.6-3.4-23.6-10.1
		s-9-15.7-9-26.8L389.6,688.8L389.6,688.8z M401.9,690.2c0,7.9,1.8,14.3,5.5,19.1c3.7,4.8,8.6,7.2,14.8,7.2c6.2,0,11.1-2.4,14.8-7.3
		c3.7-4.9,5.5-11.7,5.5-20.5c0-7.8-1.9-14.2-5.6-19.1s-8.7-7.3-14.9-7.3c-6,0-10.9,2.4-14.6,7.2S401.9,681.3,401.9,690.2z"/>
	<path d="M514.3,718.2c-4.8,5.6-11.8,8.4-21,8.4c-7.6,0-13.4-2.2-17.4-6.7c-4-4.4-6-11-6-19.7v-46.6h12.2v46.2
		c0,10.8,4.4,16.3,13.2,16.3c9.4,0,15.6-3.5,18.6-10.5v-52h12.2v71.6h-11.6L514.3,718.2z"/>
	<path d="M561.4,636.3v17.3h13.4v9.5h-13.4v44.4c0,2.9,0.6,5,1.8,6.5c1.2,1.4,3.2,2.2,6.1,2.2c1.4,0,3.3-0.3,5.8-0.8v9.9
		c-3.2,0.9-6.3,1.3-9.4,1.3c-5.5,0-9.6-1.7-12.4-5c-2.8-3.3-4.2-8-4.2-14.1v-44.4h-13v-9.5h13v-17.3L561.4,636.3L561.4,636.3z"/>
</g>
<path class="st1" d="M649.9,679.4h-40v30h46.8v13.5h-63.7v-97.4h63.2v13.7h-46.3V666h40V679.4z"/>
<path class="st1" d="M712.1,722.9c-0.7-1.4-1.3-3.6-1.9-6.8c-5.2,5.4-11.5,8.1-19,8.1c-7.3,0-13.2-2.1-17.8-6.2
	c-4.6-4.2-6.9-9.3-6.9-15.4c0-7.7,2.9-13.6,8.6-17.8s13.9-6.2,24.6-6.2h10v-4.8c0-3.8-1-6.8-3.1-9c-2.1-2.2-5.3-3.4-9.6-3.4
	c-3.7,0-6.7,0.9-9.1,2.8c-2.4,1.8-3.5,4.2-3.5,7.1h-16.3c0-4,1.3-7.7,4-11.1s6.2-6.2,10.7-8.1c4.5-2,9.6-2.9,15.2-2.9
	c8.5,0,15.2,2.1,20.3,6.4c5,4.3,7.6,10.2,7.8,18v32.7c0,6.5,0.9,11.7,2.7,15.6v1.1L712.1,722.9L712.1,722.9z M694.2,711.2
	c3.2,0,6.2-0.8,9.1-2.3c2.8-1.6,5-3.7,6.4-6.3v-13.7h-8.8c-6,0-10.5,1-13.6,3.2c-3,2.1-4.5,5.1-4.5,8.9c0,3.1,1,5.6,3.1,7.5
	C688,710.2,690.8,711.2,694.2,711.2z"/>
<path class="st1" d="M760.4,709.9h38.5v13h-58.8v-10.6l36.7-48.7h-36.1v-13.1h56.7v10.3L760.4,709.9z"/>
<path class="st1" d="M837.3,699.6l14.7-49.1h17.3l-28.8,83.4c-4.4,12.2-11.9,18.3-22.5,18.3c-2.4,0-5-0.4-7.8-1.2v-12.6l3.1,0.2
	c4.1,0,7.2-0.8,9.3-2.2c2.1-1.5,3.7-4,4.9-7.5l2.3-6.2l-25.4-72h17.5L837.3,699.6z"/>
</svg>
