<?xml version="1.0" encoding="utf-8"?>
<!-- Generator: Adobe Illustrator 24.0.0, SVG Export Plug-In . SVG Version: 6.00 Build 0)  -->
<svg version="1.1" id="Layer_1" xmlns="http://www.w3.org/2000/svg" xmlns:xlink="http://www.w3.org/1999/xlink" x="0px" y="0px"
	 viewBox="0 0 907.1 907.1" style="enable-background:new 0 0 907.1 907.1;" xml:space="preserve">
<style type="text/css">
	.st0{fill:#037053;}
	.st1{fill:none;}
	.st2{fill:#FFFFFF;}
</style>
<path class="st0" d="M781.1,758.5H117.5C56.4,758.5,6.9,709,6.9,647.9V259.1c0-61.1,49.5-110.6,110.6-110.6h663.6
	c61.1,0,110.6,49.5,110.6,110.6v388.8C891.7,709,842.2,758.5,781.1,758.5z"/>
<polygon class="st1" points="244.9,492 269.9,393.8 224.6,393.8 "/>
<polygon class="st1" points="426.3,492.5 446.5,393.8 401.5,393.8 "/>
<polygon class="st1" points="507.2,370.1 527.7,370.1 527.7,281.3 "/>
<polygon class="st1" points="324.4,370.1 347.7,370.1 336.2,325.8 "/>
<polygon class="st2" points="336.2,325.8 347.7,370.1 395.5,370.1 361.1,232.6 310.8,232.6 275.9,370.1 324.4,370.1 "/>
<polygon class="st2" points="244.9,492 224.6,393.8 168.9,393.8 211.4,577.9 269.1,577.9 318.1,393.8 269.9,393.8 "/>
<polygon class="st2" points="587.7,530 587.7,423.8 729.5,423.8 729.5,393.8 527.7,393.8 527.7,577.9 753.4,577.9 753.4,530 "/>
<polygon class="st2" points="527.7,281.3 527.7,370.1 587.7,370.1 587.7,281 751.7,281 751.7,232.6 527.7,232.6 527.7,232.6 
	479.4,232.6 451.3,370.1 507.2,370.1 "/>
<polygon class="st2" points="191.3,232.6 131.8,232.6 163.5,370.1 219.7,370.1 "/>
<polygon class="st2" points="426.3,492.5 401.5,393.8 353.9,393.8 401.8,577.9 459.2,577.9 501.7,393.8 446.5,393.8 "/>
<polygon class="st0" points="269.9,393.8 275.9,370.1 219.7,370.1 224.6,393.8 "/>
<g>
	<path class="st2" d="M168.5,649.5l1.4,9.8l2.1-8.8l14.7-51.9h8.3l14.4,51.9l2,9l1.6-10l11.5-50.8h9.9l-18,74.3h-8.9L192,618.7
		l-1.2-5.7l-1.2,5.7l-15.9,54.2h-8.9l-18-74.3h9.8L168.5,649.5z"/>
	<path class="st2" d="M239.6,644.8c0-5.4,1.1-10.3,3.2-14.6c2.1-4.3,5.1-7.7,8.9-10c3.8-2.3,8.1-3.5,13-3.5c7.5,0,13.6,2.6,18.2,7.8
		c4.6,5.2,7,12.1,7,20.8v0.7c0,5.4-1,10.2-3.1,14.5c-2.1,4.3-5,7.6-8.8,10s-8.2,3.6-13.2,3.6c-7.5,0-13.6-2.6-18.2-7.8
		c-4.6-5.2-7-12.1-7-20.7L239.6,644.8L239.6,644.8z M249.1,645.9c0,6.1,1.4,11,4.3,14.8c2.8,3.7,6.7,5.6,11.4,5.6
		c4.8,0,8.6-1.9,11.4-5.6c2.8-3.8,4.2-9,4.2-15.8c0-6.1-1.4-11-4.3-14.7s-6.7-5.6-11.5-5.6c-4.7,0-8.4,1.9-11.3,5.6
		C250.6,633.7,249.1,639,249.1,645.9z"/>
	<path class="st2" d="M328.5,626.1c-1.4-0.2-3-0.4-4.6-0.4c-6.2,0-10.4,2.6-12.6,7.9v39.2h-9.5v-55.2h9.2l0.1,6.4
		c3.1-4.9,7.5-7.4,13.2-7.4c1.8,0,3.2,0.2,4.2,0.7L328.5,626.1L328.5,626.1z"/>
	<path class="st2" d="M352.6,647.3l-5.9,6.2v19.4h-9.5v-78.4h9.5v47.4l5-6.1l17.2-18.2h11.5l-21.5,23.1l24,32.2h-11.1L352.6,647.3z"
		/>
</g>
<g>
	<path class="st2" d="M381.2,644.8c0-5.4,1.1-10.3,3.2-14.6c2.1-4.3,5.1-7.7,8.9-10c3.8-2.3,8.1-3.5,13-3.5c7.5,0,13.6,2.6,18.2,7.8
		c4.6,5.2,7,12.1,7,20.8v0.7c0,5.4-1,10.2-3.1,14.5c-2.1,4.3-5,7.6-8.8,10s-8.2,3.6-13.2,3.6c-7.5,0-13.6-2.6-18.2-7.8
		c-4.6-5.2-7-12.1-7-20.7L381.2,644.8L381.2,644.8z M390.7,645.9c0,6.1,1.4,11,4.3,14.8s6.6,5.6,11.4,5.6c4.8,0,8.6-1.9,11.4-5.6
		c2.8-3.8,4.2-9,4.2-15.8c0-6.1-1.4-11-4.3-14.7s-6.7-5.6-11.5-5.6c-4.7,0-8.4,1.9-11.3,5.6C392.2,633.7,390.7,639,390.7,645.9z"/>
	<path class="st2" d="M477.5,667.5c-3.7,4.3-9.1,6.5-16.2,6.5c-5.9,0-10.4-1.7-13.5-5.1c-3.1-3.4-4.6-8.5-4.7-15.2v-36h9.5v35.7
		c0,8.4,3.4,12.6,10.2,12.6c7.2,0,12-2.7,14.4-8.1v-40.2h9.5v55.2h-9L477.5,667.5z"/>
	<path class="st2" d="M513.8,604.3v13.4h10.3v7.3h-10.3v34.3c0,2.2,0.5,3.9,1.4,5s2.5,1.7,4.7,1.7c1.1,0,2.6-0.2,4.5-0.6v7.6
		c-2.5,0.7-4.9,1-7.2,1c-4.2,0-7.4-1.3-9.5-3.8c-2.1-2.5-3.2-6.2-3.2-10.9V625h-10.1v-7.3h10.1v-13.4L513.8,604.3L513.8,604.3z"/>
</g>
<path class="st2" d="M582.2,637.5h-30.9v23.2h36.1v10.4h-49.2v-75.2H587v10.5h-35.7v20.8h30.9L582.2,637.5L582.2,637.5z"/>
<path class="st2" d="M630.2,671.1c-0.5-1.1-1-2.8-1.5-5.2c-4,4.2-8.9,6.2-14.7,6.2c-5.6,0-10.2-1.6-13.7-4.8
	c-3.5-3.2-5.3-7.2-5.3-11.9c0-6,2.2-10.5,6.6-13.7c4.4-3.2,10.8-4.8,19-4.8h7.7v-3.7c0-2.9-0.8-5.2-2.4-7s-4.1-2.6-7.4-2.6
	c-2.9,0-5.2,0.7-7,2.1s-2.7,3.2-2.7,5.5h-12.5c0-3.1,1-5.9,3-8.6c2-2.7,4.8-4.8,8.3-6.3c3.5-1.5,7.4-2.3,11.7-2.3
	c6.5,0,11.8,1.7,15.7,4.9c3.9,3.3,5.9,7.9,6,13.9v25.2c0,5,0.7,9,2.1,12v0.9L630.2,671.1L630.2,671.1z M616.5,662.1
	c2.5,0,4.8-0.6,7-1.8s3.8-2.8,4.9-4.9v-10.5h-6.8c-4.7,0-8.2,0.8-10.5,2.4c-2.3,1.6-3.5,3.9-3.5,6.9c0,2.4,0.8,4.3,2.4,5.8
	C611.6,661.3,613.8,662.1,616.5,662.1z"/>
<path class="st2" d="M667.5,661.1h29.8v10h-45.4v-8.2l28.4-37.6h-27.8v-10.1h43.8v8L667.5,661.1z"/>
<path class="st2" d="M726.9,653.1l11.4-37.9h13.4l-22.2,64.4c-3.4,9.4-9.2,14.1-17.4,14.1c-1.8,0-3.8-0.3-6-0.9V683l2.4,0.2
	c3.2,0,5.5-0.6,7.2-1.7c1.6-1.2,2.9-3.1,3.8-5.8l1.8-4.8l-19.6-55.6H715L726.9,653.1z"/>
</svg>
