<?xml version="1.0" encoding="utf-8"?>
<!-- Generator: Adobe Illustrator 24.0.0, SVG Export Plug-In . SVG Version: 6.00 Build 0)  -->
<svg version="1.1" id="Layer_1" xmlns="http://www.w3.org/2000/svg" xmlns:xlink="http://www.w3.org/1999/xlink" x="0px" y="0px"
	 viewBox="0 0 907.09 907.09" style="enable-background:new 0 0 907.09 907.09;" xml:space="preserve">
<style type="text/css">
	.st0{fill:none;}
	.st1{fill:#037053;}
	.st2{fill:#FFFFFF;}
</style>
<polygon class="st0" points="552.72,332.97 579.27,332.97 579.27,217.94 "/>
<polygon class="st0" points="447.92,491.56 474.06,363.65 415.82,363.65 "/>
<polygon class="st0" points="212.97,490.95 245.32,363.65 186.67,363.65 "/>
<polygon class="st0" points="315.96,332.97 346.15,332.97 331.21,275.66 "/>
<polygon class="st1" points="212.97,490.95 186.67,363.65 114.64,363.65 169.67,602.13 244.3,602.13 307.79,363.65 245.32,363.65 
	"/>
<polygon class="st1" points="331.21,275.66 346.15,332.97 408.12,332.97 363.46,154.96 298.35,154.96 253.12,332.97 315.96,332.97 
	"/>
<polygon class="st1" points="579.27,217.94 579.27,332.97 656.97,332.97 656.97,217.61 869.49,217.61 869.49,154.96 579.27,154.96 
	579.27,154.96 516.71,154.96 480.33,332.97 552.72,332.97 "/>
<polygon class="st1" points="656.97,540.09 656.97,402.5 840.62,402.5 840.62,363.65 579.27,363.65 579.27,602.12 871.64,602.12 
	871.64,540.09 "/>
<polygon class="st1" points="447.92,491.56 415.82,363.65 354.14,363.65 416.29,602.13 490.61,602.13 545.64,363.65 474.06,363.65 
	"/>
<polygon class="st1" points="143.56,154.96 66.48,154.96 107.56,332.97 180.34,332.97 "/>
<polygon class="st2" points="106.06,332.97 106.06,363.65 114.64,363.65 107.56,332.97 "/>
<g>
	<path d="M114,694.87l1.85,12.7l2.71-11.44l19.05-67.19h10.71l18.58,67.19l2.65,11.64l2.05-12.96l14.95-65.87h12.76l-23.35,96.29
		h-11.57l-19.84-70.17l-1.52-7.34l-1.52,7.34l-20.57,70.17h-11.57l-23.28-96.29h12.7L114,694.87z"/>
	<path d="M206.19,688.79c0-7.01,1.38-13.31,4.13-18.91c2.75-5.6,6.59-9.92,11.51-12.96c4.92-3.04,10.53-4.56,16.83-4.56
		c9.74,0,17.62,3.37,23.64,10.12c6.02,6.74,9.03,15.72,9.03,26.92v0.86c0,6.97-1.33,13.22-4,18.75c-2.67,5.53-6.48,9.84-11.44,12.93
		c-4.96,3.09-10.66,4.63-17.1,4.63c-9.7,0-17.56-3.37-23.58-10.12c-6.02-6.75-9.03-15.67-9.03-26.78V688.79z M218.49,690.24
		c0,7.94,1.84,14.31,5.52,19.11c3.68,4.81,8.61,7.21,14.78,7.21c6.22,0,11.15-2.43,14.81-7.31c3.66-4.87,5.49-11.69,5.49-20.47
		c0-7.85-1.86-14.21-5.59-19.08c-3.73-4.87-8.67-7.31-14.85-7.31c-6.04,0-10.91,2.4-14.61,7.21S218.49,681.29,218.49,690.24z"/>
	<path d="M321.26,664.65c-1.85-0.31-3.86-0.46-6.02-0.46c-8.02,0-13.47,3.42-16.33,10.25v50.79h-12.24v-71.56h11.9l0.2,8.27
		c4.01-6.39,9.7-9.59,17.06-9.59c2.38,0,4.19,0.31,5.42,0.93V664.65z"/>
	<path d="M352.47,692.09l-7.67,8v25.13h-12.24V623.65h12.24v61.44l6.55-7.87l22.29-23.54h14.88l-27.84,29.89l31.08,41.66h-14.35
		L352.47,692.09z"/>
</g>
<g>
	<path d="M389.61,688.79c0-7.01,1.38-13.31,4.13-18.91c2.75-5.6,6.59-9.92,11.51-12.96c4.92-3.04,10.52-4.56,16.83-4.56
		c9.74,0,17.62,3.37,23.64,10.12c6.02,6.74,9.03,15.72,9.03,26.92v0.86c0,6.97-1.33,13.22-4,18.75c-2.67,5.53-6.48,9.84-11.44,12.93
		c-4.96,3.09-10.66,4.63-17.1,4.63c-9.7,0-17.56-3.37-23.58-10.12c-6.02-6.75-9.03-15.67-9.03-26.78V688.79z M401.91,690.24
		c0,7.94,1.84,14.31,5.52,19.11c3.68,4.81,8.61,7.21,14.78,7.21c6.22,0,11.15-2.43,14.81-7.31c3.66-4.87,5.49-11.69,5.49-20.47
		c0-7.85-1.86-14.21-5.59-19.08c-3.73-4.87-8.67-7.31-14.85-7.31c-6.04,0-10.91,2.4-14.62,7.21S401.91,681.29,401.91,690.24z"/>
	<path d="M514.28,718.15c-4.76,5.6-11.75,8.4-20.96,8.4c-7.63,0-13.44-2.22-17.43-6.65c-3.99-4.43-6.01-10.99-6.05-19.68v-46.56
		h12.23v46.23c0,10.85,4.41,16.27,13.23,16.27c9.35,0,15.56-3.48,18.65-10.45v-52.05h12.23v71.56h-11.64L514.28,718.15z"/>
	<path d="M561.36,636.34v17.33h13.36v9.46h-13.36v44.43c0,2.87,0.59,5.02,1.78,6.46c1.19,1.43,3.22,2.15,6.08,2.15
		c1.41,0,3.35-0.26,5.82-0.79v9.86c-3.22,0.88-6.35,1.31-9.39,1.31c-5.47,0-9.59-1.65-12.37-4.96c-2.78-3.31-4.17-8-4.17-14.09
		v-44.38H536.1v-9.46h13.03v-17.33H561.36z"/>
</g>
<path class="st1" d="M649.89,679.39h-40.02v29.98h46.78v13.52h-63.71v-97.43h63.24v13.65h-46.31V666h40.02V679.39z"/>
<path class="st1" d="M712.12,722.88c-0.71-1.38-1.34-3.64-1.87-6.76c-5.17,5.4-11.51,8.1-19,8.1c-7.27,0-13.21-2.08-17.8-6.22
	c-4.6-4.15-6.89-9.28-6.89-15.39c0-7.72,2.87-13.64,8.6-17.77c5.73-4.13,13.93-6.19,24.59-6.19h9.97v-4.75c0-3.75-1.05-6.75-3.14-9
	c-2.1-2.25-5.29-3.38-9.57-3.38c-3.7,0-6.74,0.93-9.1,2.78c-2.37,1.85-3.55,4.21-3.55,7.06h-16.26c0-3.97,1.32-7.68,3.95-11.14
	c2.63-3.46,6.21-6.17,10.74-8.13c4.53-1.96,9.58-2.94,15.16-2.94c8.48,0,15.23,2.13,20.28,6.39c5.04,4.26,7.63,10.25,7.76,17.97
	v32.66c0,6.51,0.91,11.71,2.74,15.59v1.14H712.12z M694.25,711.17c3.21,0,6.23-0.78,9.07-2.34c2.83-1.56,4.96-3.66,6.39-6.29v-13.65
	h-8.77c-6.02,0-10.55,1.05-13.58,3.15c-3.03,2.1-4.55,5.06-4.55,8.9c0,3.12,1.04,5.61,3.11,7.46
	C688,710.25,690.78,711.17,694.25,711.17z"/>
<path class="st1" d="M760.37,709.9h38.54v12.98h-58.75v-10.64l36.74-48.65h-36.07v-13.12h56.68v10.31L760.37,709.9z"/>
<path class="st1" d="M837.26,699.59l14.72-49.12h17.33l-28.77,83.38c-4.42,12.18-11.91,18.27-22.48,18.27
	c-2.37,0-4.97-0.4-7.83-1.21v-12.64l3.08,0.2c4.1,0,7.19-0.75,9.27-2.24c2.07-1.49,3.71-4,4.92-7.52l2.34-6.22l-25.43-72.02h17.53
	L837.26,699.59z"/>
</svg>
