<?xml version="1.0" encoding="utf-8"?>
<!-- Generator: Adobe Illustrator 24.0.0, SVG Export Plug-In . SVG Version: 6.00 Build 0)  -->
<svg version="1.1" id="Layer_1" xmlns="http://www.w3.org/2000/svg" xmlns:xlink="http://www.w3.org/1999/xlink" x="0px" y="0px"
	 viewBox="0 0 907.09 907.09" style="enable-background:new 0 0 907.09 907.09;" xml:space="preserve">
<style type="text/css">
	.st0{fill:#037053;}
	.st1{fill:none;}
	.st2{fill:#FFFFFF;}
</style>
<path class="st0" d="M781.08,758.54H117.49c-61.09,0-110.61-49.52-110.61-110.61V259.15c0-61.09,49.52-110.61,110.61-110.61h663.59
	c61.09,0,110.61,49.52,110.61,110.61v388.78C891.68,709.02,842.16,758.54,781.08,758.54z"/>
<polygon class="st1" points="244.87,492.04 269.85,393.75 224.57,393.75 "/>
<polygon class="st1" points="426.26,492.51 446.45,393.75 401.48,393.75 "/>
<polygon class="st1" points="507.18,370.07 527.67,370.07 527.67,281.26 "/>
<polygon class="st1" points="324.38,370.07 347.69,370.07 336.16,325.82 "/>
<polygon class="st2" points="336.16,325.82 347.69,370.07 395.54,370.07 361.06,232.64 310.79,232.64 275.87,370.07 324.38,370.07 
	"/>
<polygon class="st2" points="244.87,492.04 224.57,393.75 168.95,393.75 211.44,577.87 269.06,577.87 318.07,393.75 269.85,393.75 
	"/>
<polygon class="st2" points="587.66,529.98 587.66,423.75 729.45,423.75 729.45,393.75 527.67,393.75 527.67,577.87 753.4,577.87 
	753.4,529.98 "/>
<polygon class="st2" points="527.67,281.26 527.67,370.07 587.66,370.07 587.66,281.01 751.74,281.01 751.74,232.64 527.67,232.64 
	527.67,232.64 479.38,232.64 451.29,370.07 507.18,370.07 "/>
<polygon class="st2" points="191.28,232.64 131.77,232.64 163.48,370.07 219.67,370.07 "/>
<polygon class="st2" points="426.26,492.51 401.48,393.75 353.86,393.75 401.84,577.87 459.22,577.87 501.71,393.75 446.45,393.75 
	"/>
<polygon class="st0" points="269.85,393.75 275.87,370.07 219.67,370.07 224.57,393.75 "/>
<polygon class="st0" points="89.52,370.07 89.52,393.75 168.95,393.75 163.48,370.07 "/>
<g>
	<path class="st2" d="M168.46,649.48l1.43,9.8l2.09-8.83l14.71-51.88h8.27l14.35,51.88l2.04,8.99l1.58-10.01l11.54-50.85h9.85
		l-18.02,74.34h-8.93l-15.32-54.17l-1.17-5.67l-1.17,5.67l-15.88,54.17h-8.93l-17.97-74.34h9.8L168.46,649.48z"/>
	<path class="st2" d="M239.63,644.78c0-5.41,1.06-10.28,3.19-14.6c2.13-4.32,5.09-7.66,8.88-10.01c3.79-2.35,8.13-3.52,12.99-3.52
		c7.52,0,13.61,2.6,18.25,7.81c4.65,5.21,6.97,12.13,6.97,20.78v0.66c0,5.38-1.03,10.2-3.09,14.47c-2.06,4.27-5,7.6-8.83,9.98
		c-3.83,2.38-8.23,3.57-13.2,3.57c-7.49,0-13.56-2.6-18.2-7.81c-4.65-5.21-6.97-12.1-6.97-20.68V644.78z M249.13,645.9
		c0,6.13,1.42,11.05,4.26,14.76c2.84,3.71,6.65,5.56,11.41,5.56c4.8,0,8.61-1.88,11.44-5.64c2.83-3.76,4.24-9.03,4.24-15.8
		c0-6.06-1.44-10.97-4.32-14.73c-2.88-3.76-6.7-5.64-11.46-5.64c-4.66,0-8.42,1.86-11.28,5.57
		C250.56,633.68,249.13,638.99,249.13,645.9z"/>
	<path class="st2" d="M328.47,626.14c-1.43-0.24-2.98-0.36-4.65-0.36c-6.2,0-10.4,2.64-12.61,7.91v39.21h-9.45v-55.25h9.19
		l0.15,6.38c3.1-4.94,7.49-7.4,13.17-7.4c1.84,0,3.23,0.24,4.19,0.71V626.14z"/>
	<path class="st2" d="M352.57,647.33l-5.92,6.18v19.4h-9.45v-78.43h9.45v47.43l5.05-6.08l17.21-18.18h11.49l-21.5,23.08l24,32.17
		h-11.08L352.57,647.33z"/>
</g>
<g>
	<path class="st2" d="M381.25,644.78c0-5.41,1.06-10.28,3.19-14.6c2.13-4.32,5.09-7.66,8.88-10.01c3.79-2.35,8.13-3.52,12.99-3.52
		c7.52,0,13.61,2.6,18.25,7.81c4.65,5.21,6.97,12.13,6.97,20.78v0.66c0,5.38-1.03,10.2-3.09,14.47c-2.06,4.27-5,7.6-8.83,9.98
		c-3.83,2.38-8.23,3.57-13.2,3.57c-7.49,0-13.56-2.6-18.2-7.81c-4.65-5.21-6.97-12.1-6.97-20.68V644.78z M390.74,645.9
		c0,6.13,1.42,11.05,4.26,14.76c2.84,3.71,6.65,5.56,11.41,5.56c4.8,0,8.61-1.88,11.44-5.64c2.83-3.76,4.24-9.03,4.24-15.8
		c0-6.06-1.44-10.97-4.32-14.73c-2.88-3.76-6.7-5.64-11.46-5.64c-4.66,0-8.43,1.86-11.28,5.57
		C392.17,633.68,390.74,638.99,390.74,645.9z"/>
	<path class="st2" d="M477.49,667.45c-3.68,4.32-9.07,6.48-16.19,6.48c-5.89,0-10.37-1.71-13.45-5.13
		c-3.08-3.42-4.64-8.48-4.67-15.19v-35.95h9.45v35.69c0,8.37,3.4,12.56,10.21,12.56c7.22,0,12.02-2.69,14.4-8.07v-40.18h9.45v55.25
		h-8.99L477.49,667.45z"/>
	<path class="st2" d="M513.85,604.29v13.38h10.31v7.3h-10.31v34.3c0,2.22,0.46,3.88,1.38,4.99c0.92,1.11,2.48,1.66,4.7,1.66
		c1.09,0,2.59-0.2,4.49-0.61v7.61c-2.48,0.68-4.9,1.01-7.25,1.01c-4.22,0-7.4-1.28-9.55-3.83c-2.14-2.55-3.22-6.18-3.22-10.88
		v-34.26h-10.06v-7.3h10.06v-13.38H513.85z"/>
</g>
<path class="st2" d="M582.19,637.52h-30.9v23.15h36.11v10.44h-49.18v-75.22h48.82v10.54H551.3v20.77h30.9V637.52z"/>
<path class="st2" d="M630.24,671.1c-0.55-1.07-1.03-2.81-1.45-5.22c-4,4.17-8.89,6.25-14.67,6.25c-5.61,0-10.2-1.6-13.74-4.8
	c-3.55-3.2-5.32-7.16-5.32-11.88c0-5.96,2.21-10.53,6.64-13.72c4.43-3.19,10.75-4.78,18.99-4.78h7.7v-3.67
	c0-2.89-0.81-5.21-2.43-6.95c-1.62-1.74-4.08-2.61-7.39-2.61c-2.86,0-5.2,0.71-7.03,2.14c-1.83,1.43-2.74,3.25-2.74,5.45h-12.55
	c0-3.07,1.02-5.93,3.05-8.6c2.03-2.67,4.8-4.76,8.29-6.28c3.5-1.52,7.4-2.27,11.7-2.27c6.54,0,11.76,1.65,15.65,4.93
	c3.89,3.29,5.89,7.91,5.99,13.87v25.21c0,5.03,0.71,9.04,2.12,12.04v0.88H630.24z M616.45,662.06c2.48,0,4.81-0.6,7-1.81
	c2.19-1.21,3.83-2.82,4.93-4.86v-10.54h-6.77c-4.65,0-8.15,0.81-10.49,2.43c-2.34,1.62-3.51,3.91-3.51,6.87
	c0,2.41,0.8,4.33,2.4,5.76C611.62,661.35,613.76,662.06,616.45,662.06z"/>
<path class="st2" d="M667.49,661.08h29.76v10.02h-45.36v-8.22l28.36-37.56h-27.85V615.2h43.76v7.96L667.49,661.08z"/>
<path class="st2" d="M726.86,653.12l11.37-37.92h13.38l-22.22,64.37c-3.41,9.4-9.2,14.1-17.36,14.1c-1.83,0-3.84-0.31-6.04-0.93
	v-9.76l2.38,0.15c3.17,0,5.55-0.58,7.16-1.73c1.6-1.15,2.87-3.09,3.8-5.81l1.81-4.8l-19.63-55.6h13.54L726.86,653.12z"/>
</svg>
